<?xml version="1.0" encoding="utf-8"?>
<!-- Generator: Adobe Illustrator 15.1.0, SVG Export Plug-In . SVG Version: 6.00 Build 0)  -->
<!DOCTYPE svg PUBLIC "-//W3C//DTD SVG 1.1//EN" "http://www.w3.org/Graphics/SVG/1.1/DTD/svg11.dtd">
<svg version="1.1" xmlns="http://www.w3.org/2000/svg" xmlns:xlink="http://www.w3.org/1999/xlink" x="0px" y="0px" width="800px"
	 height="800px" viewBox="0 0 800 800" enable-background="new 0 0 800 800" xml:space="preserve">
<g id="Layer_1">
	<path d="M589.552,269.503H436.527c-6.786,0-12.287,5.502-12.287,12.287v238.423c0,6.783,5.501,12.283,12.287,12.283h153.024
		c6.784,0,12.284-5.5,12.284-12.283V281.79C601.836,275.006,596.336,269.503,589.552,269.503z M513.038,281.79
		c0.968,0,1.757,0.785,1.757,1.756c0,0.968-0.789,1.753-1.757,1.753s-1.756-0.785-1.756-1.753
		C511.282,282.575,512.07,281.79,513.038,281.79z M513.038,525.747c-3.13,0-5.669-2.541-5.669-5.67c0-3.133,2.539-5.671,5.669-5.671
		c3.134,0,5.671,2.538,5.671,5.671C518.709,523.206,516.172,525.747,513.038,525.747z M592.557,506.846H433.52V295.154h159.037
		V506.846z"/>
	<path d="M258.336,329.533h-51.083c-5.034,0.1-9.089,4.21-9.089,9.268v121.149c0,5.059,4.055,9.169,9.089,9.265h51.083
		c5.034-0.096,9.087-4.206,9.087-9.265V338.8C267.423,333.743,263.37,329.632,258.336,329.533z M228.09,339.95h9.456
		c0.834,0,1.513,0.676,1.513,1.513c0,0.837-0.679,1.517-1.513,1.517h-9.456c-0.838,0-1.517-0.679-1.517-1.517
		C226.574,340.626,227.252,339.95,228.09,339.95z M232.793,463.417c-3.131,0-5.669-2.54-5.669-5.673
		c0-3.127,2.538-5.669,5.669-5.669c3.133,0,5.671,2.542,5.671,5.669C238.464,460.877,235.926,463.417,232.793,463.417z
		 M262.282,445.672H203.35v-92.597h58.932V445.672z"/>
</g>
<g id="Layer_2">
	<path d="M1541.559,549.424h-88.424h-185.69c0.109,0.48,0.173,0.983,0.173,1.494c0,3.736-3.027,6.76-6.761,6.76h-85.96
		c-3.731,0-6.761-3.023-6.761-6.76c0-0.511,0.065-1.014,0.172-1.494H986.865h-88.427c-0.658,0-1.193,0.535-1.193,1.196v18.125
		c6.886,6.449,15.886,11.172,26.044,13.338h25.246h542.93h25.246c10.158-2.166,19.155-6.889,26.044-13.338V550.62
		C1542.755,549.959,1542.22,549.424,1541.559,549.424z M1503.682,561.846h-20.422c-0.807,0-1.459-0.649-1.459-1.456
		c0-0.806,0.652-1.458,1.459-1.458h20.422c0.807,0,1.459,0.652,1.459,1.458C1505.141,561.196,1504.488,561.846,1503.682,561.846z"/>
	<path d="M1266.07,546.618h200.795V236.003c0-9.989-8.099-18.086-18.088-18.086H991.222c-9.991,0-18.087,8.097-18.087,18.086
		v310.615h196.55H1266.07z M1220,230.324c0.945,0,1.707,0.765,1.707,1.708c0,0.943-0.762,1.708-1.707,1.708
		c-0.942,0-1.707-0.765-1.707-1.708C1218.293,231.089,1219.058,230.324,1220,230.324z M999.481,244.84h441.036V521.5H999.481V244.84
		z"/>
</g>
</svg>
